<svg version="1.2" xmlns="http://www.w3.org/2000/svg" viewBox="0 0 350 55" width="350" height="55">
	<title>Medium_(website)_logo-svg</title>
	<style>
		.s0 { fill: #1877f2 } 
	</style>
	<path id="Layer" fill-rule="evenodd" class="s0" d="m61.2 9.2c-3.2 0-4.1 1.4-4.1 4.5v5.2h8.5l-0.9 8.3h-7.6v25.4h-10.2v-25.4h-6.9v-8.3h6.9v-5c0-8.5 3.4-12.9 12.8-12.9q3 0 6 0.4v7.8zm5.1 25.5c0-9.4 4.4-16.5 13.8-16.5 5.1 0 8.2 2.6 9.7 5.9v-5.2h9.7v33.7h-9.7v-5.1c-1.4 3.3-4.6 5.8-9.7 5.8-9.4 0-13.8-7.1-13.8-16.5zm10.2 2.3c0 5 1.8 8.3 6.5 8.3 4.2 0 6.3-3 6.3-7.8v-3.4c0-4.8-2.1-7.9-6.3-7.9-4.7 0-6.5 3.4-6.5 8.4zm44.3-18.8c3.9 0 7.7 0.9 9.7 2.3l-2.2 7.2c-2.1-1-4.5-1.5-6.8-1.6-5.5 0-7.9 3.2-7.9 8.7v2c0 5.4 2.4 8.6 7.9 8.6 2.3 0 4.7-0.5 6.8-1.6l2.2 7.3c-2 1.4-5.8 2.2-9.7 2.2-12 0-17.4-6.4-17.4-16.7v-1.6c0-10.3 5.4-16.8 17.4-16.8zm11.1 18.9v-3c0-9.6 5.4-15.8 16.5-15.8 10.5 0 15.1 6.3 15.1 15.7v5.3h-21.4c0.2 4.6 2.2 6.7 7.9 6.7 3.8 0 7.9-0.8 10.8-2.1l1.9 7c-2.7 1.4-8.2 2.5-13.1 2.5-12.9 0-17.7-6.4-17.7-16.3zm10.2-4.4h12.3v-0.9c0-3.7-1.5-6.6-5.9-6.6-4.7 0-6.4 2.9-6.4 7.5zm59.2 4.1c0 9.4-4.5 16.5-13.9 16.5-5.1 0-8.6-2.5-10-5.8v5.1h-9.6v-50.6l10.2-0.9v22.5c1.4-3 4.7-5.4 9.4-5.4 9.4 0 13.9 7.1 13.9 16.5zm-10.2-2.3c0-4.8-1.8-8.3-6.7-8.3-4.2 0-6.5 3-6.5 7.8v3.5c0 4.8 2.3 7.8 6.5 7.8 4.9 0 6.7-3.5 6.7-8.3zm13.6 2.1v-1.7c0-9.7 5.5-16.7 16.8-16.7 11.2 0 16.8 7 16.8 16.7v1.7c0 9.7-5.6 16.7-16.8 16.7-11.3 0-16.8-7-16.8-16.7zm23.4-2.4c0-4.4-1.9-8-6.6-8-4.8 0-6.6 3.6-6.6 8v3.1c0 4.5 1.8 8 6.6 8 4.7 0 6.6-3.5 6.6-8zm13.6 2.5v-1.7c0-9.7 5.5-16.7 16.7-16.7 11.3 0 16.8 7 16.8 16.7v1.7c0 9.7-5.5 16.7-16.8 16.7-11.2 0-16.7-7-16.7-16.7zm23.3-2.5c0-4.4-1.8-7.9-6.6-7.9-4.7 0-6.5 3.5-6.5 7.9v3.2c0 4.4 1.8 8 6.5 8 4.8 0 6.6-3.6 6.6-8zm24.2 0.7l10.1-16h10.8l-10.5 16.6 10.9 17.1h-10.8l-10.5-16.5v16.5h-10.2v-50.6l10.2-1z"/>
</svg>