<svg version="1.2" xmlns="http://www.w3.org/2000/svg" viewBox="0 0 450 152" width="450" height="152">
	<title>google-svg</title>
	<style>
		.s0 { fill: #ea4335 } 
		.s1 { fill: #fbbc05 } 
		.s2 { fill: #4285f4 } 
		.s3 { fill: #34a853 } 
	</style>
	<path id="Layer" fill-rule="evenodd" class="s0" d="m192.6 82.4c0 21.2-16.6 36.8-36.9 36.8-20.3 0-36.9-15.6-36.9-36.8 0-21.2 16.6-36.7 36.9-36.7 20.3 0 36.9 15.5 36.9 36.7zm-16.2 0c0-13.1-9.5-22.1-20.7-22.1-11.2 0-20.7 9-20.7 22.1 0 13.2 9.5 22.3 20.7 22.3 11.2 0 20.7-9.1 20.7-22.3z"/>
	<path id="Layer" fill-rule="evenodd" class="s1" d="m272.2 82.4c0 21.2-16.6 36.8-36.9 36.8-20.3 0-36.9-15.6-36.9-36.8 0-21.2 16.6-36.7 36.9-36.7 20.3 0 36.9 15.5 36.9 36.7zm-16.2 0c0-13.1-9.7-22.1-20.7-22.1-11.2 0-20.7 9-20.7 22.1 0 13.2 9.5 22.3 20.7 22.3 11 0 20.7-9.1 20.7-22.3z"/>
	<path id="Layer" fill-rule="evenodd" class="s2" d="m348.4 113.9c0 27.2-16 38.2-34.9 38.2-17.9 0-28.6-12-32.6-21.6l14-5.9c2.5 6 8.7 13.1 18.6 13.1 12 0 19.6-7.5 19.6-21.6v-5.3h-0.6c-3.6 4.5-10.6 8.4-19.3 8.4-18.4 0-35.2-16-35.2-36.6 0-20.8 16.8-36.9 35.2-36.9 8.7 0 15.7 3.9 19.3 8.3h0.6v-6h15.3zm-14.2-31.4c0-12.3-9-22.3-20-22.3-11.1 0-20 10-20 22.3 0 12.2 8.9 22.2 20 22.2 11 0 20-10 20-22.2z"/>
	<path id="Layer" class="s3" d="m357.9 9.4h15.7v107.6h-15.7z"/>
	<path id="Layer" fill-rule="evenodd" class="s0" d="m435.1 94.5l12.5 8.4c-4 5.9-13.8 16.3-30.6 16.3-20.9 0-36.6-16.1-36.6-36.8 0-21.7 15.9-36.7 34.8-36.7 19 0 28.4 15.2 31.5 23.3l1.6 4.3-49.2 20.3c3.8 7.4 9.6 11.1 17.9 11.1 8.2 0 13.8-4 18.1-10.2zm-38.6-13.1l32.8-13.6c-1.8-4.7-7.2-7.9-13.6-7.9-8.3 0-19.6 7.3-19.2 21.5z"/>
	<path id="Layer" class="s2" d="m59.1 72.9v-15.6h52.6c0.5 2.7 0.8 5.9 0.8 9.4 0 11.7-3.2 26.2-13.5 36.5-10 10.4-22.8 16-39.7 16-31.5 0-58-25.6-58-57 0-31.4 26.5-57 58-57 17.3 0 29.7 6.8 39.1 15.7l-11.1 10.9c-6.7-6.2-15.7-11.1-28.2-11.1-22.8 0-40.8 18.5-40.8 41.5 0 22.9 18 41.4 40.8 41.4 15 0 23.4-6 29-11.4 4.3-4.3 7.2-10.7 8.3-19.3z"/>
</svg>