<svg version="1.2" xmlns="http://www.w3.org/2000/svg" viewBox="0 0 350 96" width="350" height="96">
	<title>LinkedIn_Logo-svg</title>
	<style>
		.s0 { fill: #006699 } 
		.s1 { fill: #000000 } 
		.s2 { fill: #ffffff } 
	</style>
	<g id="layer1">
		<g id="g3019">
			<path id="path14" class="s0" d="m257.4 9.1c0-3.8 3.2-7 7-7h77.6c3.9 0 7 3.2 7 7v78c0 3.8-3.1 7-7 7h-77.6c-3.8 0-7-3.2-7-7z"/>
			<path id="path16" fill-rule="evenodd" class="s1" d="m1.1 79.1h38.3v-12.5h-24.4v-47.7h-13.9z"/>
			<path id="path18" fill-rule="evenodd" class="s1" d="m44.9 79.1v-41.5h13.8v41.5zm6.8-47.1c-4.6 0-7.6-3.2-7.6-7.2 0-4.1 3.1-7.2 7.8-7.2 4.7 0 7.6 3.1 7.7 7.2 0 4-3 7.2-7.8 7.2 0 0-0.1 0-0.1 0z"/>
			<path id="path20" fill-rule="evenodd" class="s1" d="m65.1 79.1h13.9v-23.1c0-1.3 0-2.5 0.4-3.4 1-2.5 3.3-5.1 7.1-5.1 5 0 7 3.9 7 9.4v22.2h13.8v-23.8c0-12.7-6.8-18.6-15.9-18.6-7.4 0-10.7 4.1-12.5 7h0.1v-6.1h-13.9c0.2 3.9 0 41.5 0 41.5z"/>
			<path id="path22" fill-rule="evenodd" class="s1" d="m126.8 18.9h-13.8v60.2h13.8v-13.4l3.5-4.4 10.8 17.8h17l-18.2-25.7 16-17.6h-16.7c0 0-11.4 15.7-12.4 17.6z"/>
			<path id="path24" fill-rule="evenodd" class="s1" d="m166.5 61.7c0.4 5.7 6.1 8.3 12.5 8.3 4.7 0 8.6-0.6 12.3-1.8l1.8 9.1c-4.5 1.8-10.1 2.7-16.1 2.7-15.1 0-23.7-8.5-23.7-22.1 0-11 7.1-23.1 22.4-23.1 14.4 0 19.9 10.9 19.9 21.6 0 2.3-0.3 4.4-0.5 5.4 0 0-28.6-0.1-28.6-0.1zm16.2-9.2c0-3.2-1.4-8.8-7.7-8.8-5.9 0-8.3 5.3-8.6 8.8z"/>
			<path id="path26" fill-rule="evenodd" class="s1" d="m243.5 18.9v47.3c0 5 0.2 10 0.4 12.9h-12.3l-0.5-6.2h-0.3c-2.7 4.7-8.2 7.2-13.9 7.2-10.6 0-19-8.7-19-22.2-0.1-14.5 9.2-23 19.9-23 5.5 0 9.7 1.9 11.7 4.8h0.2v-20.8zm-13.8 35.4c0-0.8 0-1.7-0.2-2.5-0.8-3.6-3.8-6.6-8.1-6.6-6.4 0-9.6 5.5-9.6 12.3 0 7.3 3.8 11.9 9.5 11.9 4 0 7.3-2.7 8.1-6.5 0.2-0.8 0.3-1.9 0.3-3z"/>
			<path id="path28" fill-rule="evenodd" class="s2" d="m271.4 79.1v-41.5h13.8v41.5zm6.8-47.2c-4.6 0-7.6-3.2-7.6-7.2 0-4 3.1-7.1 7.8-7.1 4.7 0 7.6 3.1 7.7 7.1 0 4-3 7.2-7.8 7.2 0 0-0.1 0-0.1 0z"/>
			<path id="path30" fill-rule="evenodd" class="s2" d="m292.8 79.1h13.9v-23.2c0-1.2 0.1-2.5 0.4-3.4 1-2.4 3.3-5 7.1-5 5 0 7 3.8 7 9.4v22.2h13.9v-23.8c0-12.8-6.9-18.7-16-18.7-7.4 0-10.7 4.2-12.5 7h0.1v-6h-13.9c0.2 3.9 0 41.5 0 41.5z"/>
		</g>
	</g>
</svg>