<svg version="1.2" xmlns="http://www.w3.org/2000/svg" viewBox="0 0 350 55" width="350" height="55">
	<title>Medium_(website)_logo-svg</title>
	<style>
		.s0 { fill: #000000 } 
	</style>
	<g id="layer1">
		<path id="path857" fill-rule="evenodd" class="s0" d="m26.2 54.2c-14.5 0-26.2-11.8-26.2-26.4 0-14.7 11.7-26.5 26.2-26.5 14.5 0 26.2 11.8 26.2 26.5 0 14.6-11.7 26.4-26.2 26.4zm41.8-1.5c-7.2 0-13.1-11.2-13.1-24.9 0-13.8 5.9-25 13.1-25 7.2 0 13.1 11.2 13.1 25 0 13.7-5.9 24.9-13.1 24.9zm20.2-2.6c-2.5 0-4.6-10-4.6-22.3 0-12.4 2.1-22.4 4.6-22.4 2.6 0 4.7 10 4.7 22.4 0 12.3-2.1 22.3-4.7 22.3zm72.8-41.7v39.8c0.3 2.6 1.7 3.4 4.1 4h0.1v0.5h-19v-0.5h0.1c2.5-0.6 3.8-1.4 4.1-4v-38.7l-18.3 43.2h-1l-17.8-42v36.5c0 3.3 1.4 4.3 4.1 4.9h0.1v0.6h-10.9v-0.6h0.1c2.7-0.6 4.1-1.6 4.1-4.9v-38.8c0-3.3-1.4-4.2-4.1-4.8h-0.1v-0.6h16.1l13.8 32.6 13.8-32.6h14.9v0.6h-0.1c-2.7 0.6-4.1 1.5-4.1 4.8zm23.1 37.3c4.6 0.3 8.6-2.5 10.8-7.1l0.6 0.2c-1.2 8.6-6.3 15-15 15-10 0-15.5-8.3-15.8-18.7q0-0.2 0-0.5 0-0.2 0-0.4 0-0.3 0-0.5 0-0.3 0-0.5 0.1-0.2 0.1-0.4 0-0.2 0-0.4c0.4-4.6 1.8-8.7 4.3-11.7 1.5-1.9 3.3-3.3 5.3-4.3 1.8-0.9 4.4-1.4 6.4-1.4h0.1c4 0 7.8 1.4 10.4 3.8 2.9 2.9 4.5 7 4.5 12.3v0.1h-22.2c-0.4 7.7 4.3 14 10.5 14.5zm2.4-16.4c0.1-5.5-0.7-9.1-2.5-10.8q-1.3-1.3-3.2-1.3c-4.2 0.1-6.7 5.1-7 12.1zm49.3 22.8v0.6h-14.8v-5.7c-1.7 4.3-5.4 6.8-10 6.8-7.9 0-13.2-7.2-13.2-18 0-6.1 1.7-11.3 5-15.1 3.1-3.7 7.5-5.7 12.3-5.7 2.3 0 4.2 0.5 5.9 1.6v-6.4q0-2.1-1.1-3c-0.9-0.9-2.4-1.2-4.7-1h-0.1v-0.6l16.5-4.9v46.3c0 3.5 1.4 4.5 4.1 5.1zm-14.8-32.4c-0.7-1.6-2.2-2.6-4.1-2.6-4.6 0-7.6 6.2-7.6 15.7 0 4.6 0.8 8.5 2.2 11.2 1.3 2.6 3.2 4 5.2 4 2 0 3.6-1 4.3-2.7zm23-6.8c-3.3 0-5.9-2.6-5.9-5.9 0-3.3 2.6-5.9 5.9-5.9 3.3 0 5.9 2.6 5.9 5.9 0 3.3-2.6 5.9-5.9 5.9zm9.9 39.2v0.6h-14.8v-27.6c0-3.8-0.9-4.9-4.1-5.1l-0.1-0.1v-0.5l14.8-4.3v31.9c0 3.5 1.4 4.5 4.1 5.1zm38 0v0.6h-14.8v-5.9c-1.7 4.3-5.5 7-9.9 7-5.2 0-8.4-2.4-9.7-6.9l-0.3-1.2q-0.1-0.4-0.1-0.9-0.1-0.4-0.1-0.8 0-0.5-0.1-0.9 0-0.5 0-0.9v-17.1c0-3.8-0.9-4.9-4.1-5.2h-0.1v-0.5l14.9-4.3v26.8c0 4 1.7 6.1 5 6.1 1.9 0 3.6-1.1 4.5-2.8v-20.2c0-3.8-0.8-4.9-3.4-5.2h-0.1v-0.6l14.1-4.1v31.9c0 3.5 1.4 4.4 4.1 5.1zm42.7 0.6v-26.5c0-4.3-1.5-6.4-4.6-6.4-2.6 0-4 1.9-4.6 3.5q0 0.3 0.1 0.6 0 0.3 0 0.6 0.1 0.3 0.1 0.6 0 0.3 0 0.7v22.1c0 2.6 0.7 3.6 3.1 4.2h0.1v0.6h-13.9v-26.5c0-4.2-1.5-6.4-4.6-6.4-2.5 0-3.7 1.7-4.4 3.2v24.9c0 2.6 0.8 3.6 3.1 4.2h0.1v0.6h-13.8v-27.9c0-3.6-0.9-4.8-4.1-5.1h-0.1v-0.5l14.8-4.1v6.2c1.5-4 5-6.4 9.5-6.4 5.1 0 8.5 2.5 9.7 6.9 1.5-4.2 5.4-6.9 10-6.9 6.4 0 10.1 4.1 10.1 10.9v21.7c0 2.6 1.2 3.9 4.1 4.6h0.1v0.6z"/>
	</g>
</svg>