<svg version="1.2" xmlns="http://www.w3.org/2000/svg" viewBox="0 0 400 80" width="400" height="80">
	<title>microsoft-logo-svg</title>
	<style>
		.s0 { fill: #706d6e } 
		.s1 { fill: #f1511b } 
		.s2 { fill: #80cc28 } 
		.s3 { fill: #00adef } 
		.s4 { fill: #fbbc09 } 
	</style>
	<g id="Layer">
		<path id="Layer" fill-rule="evenodd" class="s0" d="m386.6 36.2h-8v16.1q0 3.1 1.1 4.4 1.1 1.2 3.5 1.2c0.4 0 0.9-0.1 1.6-0.3q1-0.2 1.6-0.7l0.3-0.2v6.6l-0.1 0.1c-0.5 0.3-1.3 0.5-2.5 0.8q-1.8 0.4-3.5 0.3c-6.7 0-10.1-3.6-10.1-10.8v-17.4h-12.1v27.4h-8.2v-27.4h-5.6v-6.5h5.6v-4.7q0-3.6 1.6-6.4c1.1-1.9 2.5-3.3 4.4-4.3q2.8-1.6 6.4-1.6 2.8 0 4.5 0.6h0.2v6.9l-0.3-0.1c-1.2-0.6-2.5-0.8-3.6-0.8-1.6 0-2.9 0.5-3.7 1.5-0.9 1-1.4 2.5-1.4 4.5v4.3h12.1v-7.7h0.2l7.6-2.4h0.3v10.1h8.1zm-47.4-2.7c3 3.1 4.6 7.4 4.6 12.8 0 5.5-1.6 9.9-4.8 13.2-3.2 3.3-7.6 5-13 5-5.3 0-9.5-1.6-12.6-4.7-3.2-3.1-4.7-7.4-4.7-12.8q0-8.4 4.8-13.3 4.8-4.9 13.3-4.9c5.3 0 9.5 1.6 12.4 4.7zm-6 21.5c1.5-1.9 2.3-4.8 2.3-8.5 0-3.6-0.9-6.4-2.5-8.3-1.6-1.9-3.8-2.8-6.7-2.8-2.9 0-5.2 1-6.8 3-1.7 1.9-2.5 4.7-2.5 8.3 0 3.5 0.8 6.3 2.5 8.2q2.5 2.9 6.9 2.9 4.5 0 6.8-2.8zm-33.6-25.8q2.2 0.4 3.6 1l0.1 0.1v7.4l-0.3-0.2q-1.6-1.1-3.6-1.7-2.1-0.6-4.2-0.6-2.2 0-3.4 0.9c-0.9 0.7-1.3 1.5-1.3 2.4q0 1.7 1 2.7c0.7 0.6 2.3 1.5 4.8 2.5q4.8 1.9 6.8 4.3c1.3 1.6 2 3.5 2 5.8 0 3.2-1.2 5.8-3.7 7.7-2.4 2-5.8 3-9.9 3-1.4 0-2.9-0.2-4.6-0.6q-2.6-0.5-4.4-1.3h-0.1v-7.8l0.4 0.2q2.1 1.5 4.5 2.3 2.5 0.8 4.5 0.8c3.5 0 5.2-1.1 5.2-3.4q0-1.3-0.5-2c-0.3-0.4-0.9-0.9-1.8-1.4q-1.3-0.8-4.1-1.9-3.3-1.4-5-2.8-1.5-1.3-2.4-3.1c-0.5-1.2-0.7-2.7-0.7-4.3q-0.1-4.6 3.6-7.5c2.4-1.9 5.6-2.9 9.5-2.9 1.1 0 2.5 0.1 4 0.4zm-25.5 4.3c3 3.1 4.5 7.4 4.5 12.8 0 5.5-1.6 9.9-4.8 13.2-3.2 3.3-7.6 5-13 5-5.2 0-9.5-1.6-12.6-4.7-3.1-3.1-4.7-7.4-4.7-12.8q0-8.4 4.8-13.3 4.8-4.9 13.3-4.9c5.3 0 9.5 1.6 12.5 4.7zm-6.1 21.5c1.5-1.9 2.3-4.8 2.3-8.5 0-3.6-0.9-6.4-2.5-8.3-1.6-1.9-3.8-2.8-6.6-2.8-3 0-5.3 1-6.9 3-1.7 1.9-2.5 4.7-2.5 8.3 0 3.5 0.9 6.3 2.5 8.2q2.5 2.9 6.9 2.9c3 0 5.3-0.9 6.8-2.8zm-36.8-19.5c0.8-2 1.7-3.5 3.1-4.6 1.6-1.2 3.4-1.9 5.4-1.9q2 0 3.1 0.5h0.2v8.1l-0.4-0.3c-0.3-0.2-1-0.5-1.9-0.7-0.9-0.2-1.6-0.3-2.4-0.3-2.1 0-3.8 0.8-5.2 2.7-1.3 1.8-1.9 4.2-1.9 7.2v17.4h-8.1v-34h8.1v5.9zm-18.1-6.2q2.3 0.5 3.7 1.2l0.1 0.1v7.7l-0.3-0.2c-2.4-1.8-5-2.7-7.7-2.7-3 0-5.6 1.1-7.5 3.1-1.9 2.1-2.9 4.9-2.9 8.3 0 3.5 1 6.2 2.8 8.1 1.8 2 4.4 2.9 7.5 2.9 1.2 0 2.5-0.2 3.9-0.7q2.2-0.8 3.9-2.1l0.4-0.2v7.3l-0.1 0.1c-2.7 1.5-5.9 2.3-9.8 2.3-3.2 0-6.2-0.8-8.7-2.2-2.6-1.4-4.6-3.4-6-6-1.4-2.6-2.2-5.6-2.2-8.8q0-5.5 2.2-9.8c1.5-2.8 3.7-5 6.5-6.6q4.2-2.3 9.8-2.3 2.1 0 4.4 0.5zm-36.4 0.3h8v34h-8zm7.5-13.1c1 0.8 1.4 2 1.4 3.3 0 1.2-0.5 2.4-1.4 3.2-1 0.9-2.1 1.3-3.5 1.3-1.3 0-2.5-0.4-3.4-1.3q-1.4-1.3-1.4-3.2c0-1.4 0.5-2.5 1.4-3.4 1-0.8 2.1-1.3 3.5-1.3q2.1 0 3.4 1.4zm-23.8 10.6l-14.5 36.5h-5.8l-14.8-36.5h-0.3v36.5h-7.7v-47.5h11.8l14 35.3 14.4-35.3h11.4v47.5h-8.2v-36.5z"/>
		<path id="Layer" class="s1" d="m14 0.4h37.8v37.6h-37.8z"/>
		<path id="Layer" class="s2" d="m55.7 0.4h37.8v37.6h-37.8z"/>
		<path id="Layer" class="s3" d="m51.8 79.6h-37.8v-37.7h37.8v37.7z"/>
		<path id="Layer" class="s4" d="m55.7 41.9h37.8v37.7h-37.8z"/>
	</g>
</svg>